# xmcd
#
# Track frame offsets:
#	150
#	9564
#	16804
#	27614
#	41364
#	54757
#	69878
#	84328
#	95991
#	110374
#	122978
#	137763
#	153713
#	170002
#	182808
#	196573
#
# Disc length: 2810 seconds
#
# Revision: 1
# Processed by: cddbd v1.5.2PL0 Copyright (c) Steve Scherf et al.
# Submitted via: audiograbber 1.83.01
#
DISCID=cd0af810
DTITLE=Various Artist - Country Legenden - CD 2/2
DYEAR=2007
DGENRE=Country
TTITLE0=Frankie Lane - Rawhide
TTITLE1=Conway Twitty - Treat Me Mean, Treat Me Cruel
TTITLE2=Jerry Wallace - Primrose Lane
TTITLE3=Willie Nelson - Home Is Where You Happy
TTITLE4=Don Williams - Where Do I Go From Here
TTITLE5=Anne Murray - There Goes My Everything
TTITLE6=Freddy Fender - Wasted Days and Wasted Nights
TTITLE7=Jerry Wallace - There She Goes
TTITLE8=Gail Gavan - I Pretend
TTITLE9=Johnny Cash - I Walk The Line
TTITLE10=John Denver - Take Me Home Country Roads
TTITLE11=Brenda Lee - You're The One That I Want
TTITLE12=Don Gibson  - Green Green Grass Of Home
TTITLE13=Charly Pride - Help Me Make It Through The Night
TTITLE14=Glen Campbell - Rhinestone Cowboy
TTITLE15=Ray Griff - Who's Gonna Play This Old Piano
EXTD=
EXTT0=
EXTT1=
EXTT2=
EXTT3=
EXTT4=
EXTT5=
EXTT6=
EXTT7=
EXTT8=
EXTT9=
EXTT10=
EXTT11=
EXTT12=
EXTT13=
EXTT14=
EXTT15=
PLAYORDER=
